<svg width="64" height="64" viewBox="0 0 64 64" fill="none" xmlns="http://www.w3.org/2000/svg">
<path d="M39.6196 57.44C9.85712 51.7738 13.3957 9.16012 43.6399 8.33003C44.4536 8.27821 45.6844 8.68525 45.9496 7.60003C46.0076 7.37445 45.9831 7.13556 45.8804 6.92651C45.7777 6.71745 45.6036 6.552 45.3896 6.46003C41.7884 4.83334 37.8812 3.99463 33.9296 4.00003C-3.21578 5.53656 -3.20612 58.4686 33.9298 60.0001C35.8549 59.9989 37.7747 59.8012 39.6596 59.41C39.889 59.3629 40.0947 59.2369 40.2409 59.0539C40.387 58.8709 40.4645 58.6425 40.4597 58.4084C40.4549 58.1742 40.3683 57.9491 40.2148 57.7722C40.0614 57.5953 39.8508 57.4778 39.6196 57.44Z" fill="#CE68E8"/>
<path d="M58.0102 23.78C53.5716 11.738 37.5622 8.2889 28.5902 17.4802C25.2332 20.8422 23.3477 25.399 23.3477 30.1501C23.3477 34.9011 25.2332 39.458 28.5902 42.82C29.4626 43.691 30.4208 44.4716 31.4502 45.15C31.6456 45.2768 31.8791 45.3314 32.1104 45.3045C32.3418 45.2776 32.5566 45.1709 32.7177 45.0027C32.8788 44.8344 32.9762 44.6153 32.9931 44.383C33.0099 44.1507 32.9453 43.9197 32.8102 43.73C30.5989 40.6445 29.6292 36.8401 30.0937 33.0725C30.5582 29.305 32.4229 25.8501 35.3173 23.394C38.2117 20.9379 41.9241 19.6604 45.717 19.8153C49.5098 19.9703 53.1057 21.5462 55.7902 24.2302C56.2452 24.7489 56.8492 25.459 57.5903 24.9899C57.7893 24.8678 57.9398 24.6805 58.0164 24.46C58.0929 24.2394 58.0907 23.9991 58.0102 23.78Z" fill="#CE68E8"/>
<path d="M44.9798 23.29C42.0942 23.2926 39.3273 24.4394 37.2859 26.479C35.2444 28.5185 34.0951 31.2844 34.0898 34.17C34.193 35.1779 33.9207 37.1202 35.3197 37.2001C35.5539 37.1949 35.779 37.1081 35.956 36.9548C36.1331 36.8014 36.2512 36.5911 36.2898 36.36C38.2725 25.9743 53.2555 27.6117 52.9998 38.1701C52.9945 38.3053 53.0163 38.4401 53.0641 38.5666C53.1118 38.6931 53.1844 38.8088 53.2777 38.9067C53.371 39.0046 53.4829 39.0828 53.607 39.1366C53.731 39.1904 53.8646 39.2188 53.9998 39.22C54.1927 39.222 54.3819 39.167 54.5437 39.0621C54.7056 38.9572 54.8329 38.8069 54.9098 38.63C55.5464 37.2295 55.8738 35.7084 55.8698 34.17C55.8646 31.2844 54.7152 28.5186 52.6738 26.479C50.6324 24.4395 47.8655 23.2927 44.9798 23.29Z" fill="#CE68E8"/>
</svg>
